<svg xmlns="http://www.w3.org/2000/svg" xmlns:xlink="http://www.w3.org/1999/xlink" width="802" zoomAndPan="magnify" viewBox="0 0 601.5 236.249991" height="315" preserveAspectRatio="xMidYMid meet" version="1.0"><defs><g/><clipPath id="85979bef10"><path d="M 50 54.804688 L 205 54.804688 L 205 202.515625 L 50 202.515625 Z M 50 54.804688 " clip-rule="nonzero"/></clipPath><clipPath id="bda0dcbf3a"><path d="M 0.703125 132 L 157 132 L 157 176 L 0.703125 176 Z M 0.703125 132 " clip-rule="nonzero"/></clipPath></defs><g clip-path="url(#85979bef10)"><path fill="#ffffff" d="M 79.199219 142.054688 L 70.515625 185.746094 L 143.992188 184.921875 L 144.039062 184.921875 C 157.695312 184.921875 169.128906 180.464844 176.800781 173.878906 C 180.902344 170.34375 183.84375 166.226562 185.339844 161.914062 C 186.738281 157.894531 186.835938 153.679688 185.433594 149.660156 C 183.503906 144.085938 178.679688 138.515625 170.382812 133.722656 L 156.921875 125.96875 L 170.867188 119.140625 C 179.066406 115.121094 184.566406 108.871094 186.929688 102.1875 C 188.332031 98.261719 188.667969 94.191406 187.800781 90.414062 C 186.980469 86.734375 185 83.195312 181.769531 80.242188 C 176.027344 74.960938 166.476562 71.425781 152.433594 71.425781 L 93.285156 71.425781 L 90.003906 88.089844 L 87.835938 99.183594 L 71.042969 99.183594 L 79.730469 54.859375 L 152.433594 54.859375 C 170.960938 54.859375 184.324219 60.140625 192.914062 68.082031 C 198.703125 73.414062 202.273438 79.902344 203.816406 86.878906 C 205.359375 93.757812 204.832031 100.925781 202.417969 107.707031 C 199.910156 114.78125 195.375 121.464844 188.910156 126.9375 C 194.84375 132.269531 198.75 138.179688 200.875 144.28125 C 203.574219 152.03125 203.382812 159.929688 200.875 167.339844 C 198.460938 174.410156 193.832031 181.046875 187.460938 186.472656 C 177.089844 195.433594 161.84375 201.394531 144.039062 201.441406 L 60.429688 202.363281 L 50.300781 202.457031 L 52.277344 192.480469 L 63.035156 138.855469 Z M 79.199219 142.054688 " fill-opacity="1" fill-rule="nonzero"/></g><g clip-path="url(#bda0dcbf3a)"><path fill="#ffffff" d="M 115.863281 149.078125 L 114.371094 159.054688 L 130.726562 159.054688 C 135.742188 159.054688 138.832031 157.410156 139.941406 155.324219 C 140.230469 154.792969 140.375 154.261719 140.375 153.777344 C 140.375 153.339844 140.230469 152.855469 139.988281 152.371094 C 138.976562 150.480469 135.984375 149.027344 130.726562 149.027344 L 115.863281 149.027344 Z M 99.605469 146.75 L 0.703125 132.511719 L 130.773438 132.511719 C 142.882812 132.511719 150.796875 137.742188 154.460938 144.476562 C 156.054688 147.429688 156.875 150.675781 156.824219 153.921875 C 156.824219 157.167969 156.003906 160.363281 154.414062 163.269531 C 150.648438 170.195312 142.59375 175.671875 130.773438 175.671875 L 95.214844 175.671875 Z M 99.605469 146.75 " fill-opacity="1" fill-rule="nonzero"/></g><path fill="#d9d9d9" d="M 115.863281 149.078125 L 99.605469 146.75 L 98.351562 155.035156 Z M 115.863281 149.078125 " fill-opacity="1" fill-rule="evenodd"/><path fill="#ffffff" d="M 122.234375 96.082031 L 120.738281 106.0625 L 137.09375 106.0625 C 142.109375 106.0625 145.199219 104.414062 146.308594 102.332031 C 146.597656 101.796875 146.742188 101.265625 146.742188 100.78125 C 146.742188 100.34375 146.597656 99.859375 146.355469 99.375 C 145.34375 97.488281 142.351562 96.035156 137.09375 96.035156 L 122.234375 96.035156 Z M 108.433594 79.515625 L 137.140625 79.515625 C 149.25 79.515625 157.164062 84.746094 160.832031 91.480469 C 162.421875 94.4375 163.242188 97.679688 163.195312 100.925781 C 163.195312 104.171875 162.375 107.371094 160.78125 110.277344 C 157.019531 117.203125 148.960938 122.675781 137.140625 122.675781 L 101.585938 122.675781 Z M 108.433594 79.515625 " fill-opacity="1" fill-rule="nonzero"/><path fill="#ffffff" d="M 87.835938 99.183594 L 89.28125 82.617188 L 23.667969 99.183594 Z M 87.835938 99.183594 " fill-opacity="1" fill-rule="nonzero"/><g fill="#ffffff" fill-opacity="1"><g transform="translate(216.349552, 192.871538)"><g><path d="M -0.179688 0 L 32.277344 0 L 57.160156 -128.921875 L 24.703125 -128.921875 Z M -0.179688 0 "/></g></g></g><g fill="#ffffff" fill-opacity="1"><g transform="translate(266.474199, 192.871538)"><g><path d="M -0.359375 0 L 89.433594 0 L 94.484375 -26.503906 L 37.144531 -26.503906 L 56.976562 -128.921875 L 24.523438 -128.921875 Z M -0.359375 0 "/></g></g></g><g fill="#ffffff" fill-opacity="1"><g transform="translate(367.62499, 192.871538)"><g><path d="M -0.359375 0 L 89.433594 0 L 94.484375 -26.503906 L 37.144531 -26.503906 L 56.976562 -128.921875 L 24.523438 -128.921875 Z M -0.359375 0 "/></g></g></g><g fill="#ffffff" fill-opacity="1"><g transform="translate(468.77578, 192.871538)"><g><path d="M -9.554688 0 L 22.898438 0 L 36.242188 -26.867188 L 80.417969 -26.867188 L 83.664062 0 L 116.121094 0 L 94.484375 -128.921875 L 62.027344 -128.921875 Z M 48.503906 -51.570312 L 72.304688 -99.171875 L 72.664062 -99.171875 L 78.074219 -51.570312 Z M 48.503906 -51.570312 "/></g></g></g></svg>